<svg width="124" height="153" viewBox="0 0 124 153" fill="none" xmlns="http://www.w3.org/2000/svg">
<g filter="url(#filter0_d_8_28)">
<path d="M83.3283 47.6311C83.3931 44.0477 83.077 40.2867 82.3801 36.3481C81.77 32.3258 80.7303 28.4663 79.2609 24.7698C77.7914 21.0733 75.8001 17.9222 73.2868 15.3163C70.941 12.8842 68.1617 10.8283 64.9489 9.14858C61.8229 7.38512 58.5566 6.3019 55.15 5.89892C54.1293 5.70976 53.0643 5.60516 51.9552 5.58511C50.9314 5.5666 49.9075 5.54809 48.8837 5.52958C45.5562 5.46942 42.228 5.45192 38.899 5.47708C35.6553 5.50378 32.369 5.52971 29.04 5.55487L27.617 84.262C27.5707 86.8216 28.3938 88.5008 30.0863 89.2995C31.7788 90.0982 33.6916 90.5168 35.8246 90.5554C39.2373 90.6171 42.7378 90.5524 46.3258 90.3612C49.9992 90.1716 53.5507 89.6384 56.9805 88.7615C60.4971 87.801 63.7251 86.2804 66.6645 84.1999C72.6302 79.955 76.8669 74.5694 79.3746 68.043C81.8839 61.4313 83.2018 54.6273 83.3283 47.6311ZM97.5687 45.9683C97.4159 54.4149 95.4792 62.4025 91.7585 69.9311C88.1231 77.4613 82.5958 83.421 75.1766 87.8103C72.1581 89.548 68.6756 90.9787 64.7293 92.1022C60.8699 93.1419 56.9306 93.8815 52.9113 94.3209C48.892 94.7603 45.1333 94.9484 41.6353 94.8852C38.5638 94.8296 35.4511 94.688 32.2974 94.4603C29.229 94.2341 26.1164 94.0925 22.9596 94.0354C20.4853 93.9907 17.9676 93.9878 15.4065 94.0269C12.8469 93.9806 10.3284 94.0204 7.85108 94.1463C7.42294 94.2239 6.99558 94.2589 6.56898 94.2512C6.14238 94.2435 5.71578 94.2357 5.28919 94.228C4.77727 94.2188 4.48251 94.0001 4.4049 93.5719C4.3273 93.1438 4.29158 92.7591 4.29775 92.4178C4.30855 91.8206 4.74286 91.4017 5.60068 91.1612C6.54382 90.9222 7.52885 90.7266 8.55577 90.5745C9.668 90.4239 10.4397 90.2245 10.871 89.9762C12.3353 89.2346 13.2938 88.1424 13.7467 86.6997C14.2863 85.1732 14.5701 83.6421 14.5978 82.1063C14.6827 77.4138 14.7667 72.7638 14.85 68.1566C15.0202 63.4656 15.1477 58.7738 15.2325 54.0812L15.4454 42.3071C15.5302 37.6146 15.6143 32.9647 15.6976 28.3574C15.7809 23.7502 15.865 19.1003 15.9498 14.4077C16.0084 11.1656 15.6661 8.85499 14.923 7.476C14.1798 6.097 12.0591 5.37588 8.56102 5.31264C7.96379 5.30184 7.36578 5.3337 6.767 5.40822C6.25508 5.39897 5.70051 5.38894 5.10327 5.37814C4.50604 5.36735 3.95455 5.18668 3.4488 4.83615C3.02992 4.40184 2.82587 3.88607 2.83667 3.28883C2.86135 1.92372 3.55625 1.2535 4.92136 1.27818C6.8837 1.31366 8.84451 1.43446 10.8038 1.64058C12.7646 1.76138 14.6835 1.83875 16.5605 1.87268C22.8741 1.98683 29.1909 1.93034 35.5107 1.70321C41.9173 1.39231 48.2775 1.29393 54.5911 1.40808C63.7203 1.57313 71.4954 3.46332 77.9164 7.07865C84.4228 10.6955 89.3656 15.8204 92.7449 22.4532C96.1258 29.0007 97.7337 36.8391 97.5687 45.9683ZM107.519 122.097C107.643 115.271 106.33 109.956 103.583 106.151C100.92 102.347 95.9647 100.295 88.7156 99.993C87.3505 99.9684 85.9854 99.9437 84.6203 99.919C83.2567 99.809 81.8924 99.7417 80.5273 99.717C78.3943 99.6784 76.2179 99.6817 73.998 99.727C71.8635 99.7737 69.6871 99.777 67.4688 99.7369L66.7445 139.794C66.7168 141.33 67.1233 142.447 67.9642 143.145C68.8903 143.845 69.9918 144.291 71.2685 144.485C72.5467 144.593 73.7404 144.658 74.8496 144.678C76.3 144.704 77.7505 144.73 79.2009 144.756C80.7382 144.699 82.2328 144.64 83.6848 144.581C90.774 144.283 96.4848 142.338 100.817 138.746C105.149 135.155 107.383 129.605 107.519 122.097ZM101.814 76.546C101.932 69.9764 100.226 65.2514 96.693 62.3711C93.162 59.4055 88.2397 57.8656 81.9261 57.7514C79.6225 57.7098 77.3181 57.7108 75.0129 57.7544C72.7946 57.7143 70.5321 57.7588 68.2254 57.8878L67.5336 96.1535C68.728 96.1751 69.8791 96.2386 70.9867 96.344C72.0958 96.364 73.205 96.3841 74.3141 96.4041C76.4471 96.4427 78.7949 96.3998 81.3576 96.2754C84.0056 96.1526 86.5302 95.7715 88.9315 95.1322C91.4181 94.4943 93.4858 93.4222 95.1347 91.9158C97.1325 89.9889 98.7107 87.6704 99.8692 84.9602C101.115 82.1663 101.763 79.3615 101.814 76.546ZM121.25 120.296C121.142 126.269 119.64 131.448 116.744 135.834C113.85 140.134 109.567 143.342 103.896 145.459C100.888 146.599 97.589 147.351 93.9979 147.712C90.4936 147.99 87.1204 148.1 83.8783 148.041C83.281 148.031 82.6411 148.019 81.9586 148.007C81.3613 147.996 80.7649 147.942 80.1692 147.846C76.0769 147.602 71.9839 147.4 67.8901 147.24C63.8832 146.997 59.8321 146.839 55.7367 146.765C53.4331 146.723 51.1264 146.852 48.8166 147.152C46.5937 147.367 44.3304 147.454 42.0268 147.413C41.3442 147.4 40.9649 147.138 40.8889 146.624C40.8143 146.025 40.7817 145.47 40.791 144.958C40.8079 144.02 41.2003 143.557 41.9682 143.571C43.1627 143.593 44.3998 143.615 45.6796 143.638C47.0463 143.578 48.3284 143.473 49.5259 143.324C51.3223 143.1 52.4864 142.438 53.0184 141.339C53.6372 140.155 54.0039 138.753 54.1186 137.134C54.3201 135.43 54.3928 133.767 54.3368 132.145C54.2808 130.522 54.2674 128.9 54.2967 127.279C54.3538 124.123 54.4109 120.966 54.468 117.809C54.6119 114.568 54.7124 111.37 54.7695 108.213L55.0217 94.263C55.105 89.6558 55.1456 85.0478 55.1436 80.439C55.2269 75.8317 55.3102 71.2245 55.3935 66.6172C55.4089 65.764 55.3809 64.9527 55.3095 64.1833C55.3249 63.3301 55.2116 62.5173 54.9695 61.7448C54.4031 60.0276 53.3551 58.9845 51.8256 58.6154C50.3828 58.1626 48.8936 57.9223 47.3579 57.8946C46.7606 57.8838 46.12 57.9148 45.4359 57.9878C44.8386 57.977 44.1987 57.9655 43.5162 57.9531C42.9189 57.9423 42.5404 57.6368 42.3806 57.0364C42.306 56.4377 42.2719 55.9676 42.278 55.6264C42.2842 55.2851 42.333 54.9446 42.4245 54.6048C42.6029 54.1813 42.9053 53.9734 43.3319 53.9811C45.2943 54.0166 47.2124 54.1366 49.0864 54.3412C50.9619 54.4605 52.8381 54.5371 54.7151 54.571C59.749 54.662 64.6998 54.6235 69.5677 54.4555C74.5223 54.2037 79.477 53.9519 84.4317 53.7C85.1158 53.6271 85.7565 53.596 86.3537 53.6068C86.951 53.6176 87.5482 53.6284 88.1454 53.6392C92.9233 53.7255 97.391 54.4464 101.549 55.8018C105.793 57.0734 109.21 59.2689 111.799 62.3882C114.389 65.5075 115.633 69.84 115.533 75.3858C115.47 78.8839 114.474 82.0237 112.546 84.8053C110.705 87.5032 108.316 89.8497 105.378 91.8449C102.527 93.7564 99.5972 95.2823 96.5894 96.4228L96.5779 97.0627C100.661 97.8193 104.606 99.1281 108.413 100.989C112.221 102.765 115.334 105.254 117.751 108.455C120.17 111.572 121.336 115.519 121.25 120.296Z" fill="#111026"/>
</g>
<defs>
<filter id="filter0_d_8_28" x="0.244612" y="0.473289" width="123.132" height="152.363" filterUnits="userSpaceOnUse" color-interpolation-filters="sRGB">
<feFlood flood-opacity="0" result="BackgroundImageFix"/>
<feColorMatrix in="SourceAlpha" type="matrix" values="0 0 0 0 0 0 0 0 0 0 0 0 0 0 0 0 0 0 127 0" result="hardAlpha"/>
<feOffset dy="4"/>
<feComposite in2="hardAlpha" operator="out"/>
<feColorMatrix type="matrix" values="0 0 0 0 0 0 0 0 0 0 0 0 0 0 0 0 0 0 0.25 0"/>
<feBlend mode="normal" in2="BackgroundImageFix" result="effect1_dropShadow_8_28"/>
<feBlend mode="normal" in="SourceGraphic" in2="effect1_dropShadow_8_28" result="shape"/>
</filter>
</defs>
</svg>
